<mxfile host="app.diagrams.net" agent="Mozilla/5.0 (Macintosh; Intel Mac OS X 10_15_7) AppleWebKit/537.36 (KHTML, like Gecko) Chrome/129.0.0.0 Safari/537.36" version="24.8.3">
  <diagram id="C5RBs43oDa-KdzZeNtuy" name="Page-1">
    <mxGraphModel dx="1026" dy="684" grid="1" gridSize="10" guides="1" tooltips="1" connect="1" arrows="1" fold="1" page="1" pageScale="1" pageWidth="827" pageHeight="1169" math="0" shadow="0">
      <root>
        <mxCell id="WIyWlLk6GJQsqaUBKTNV-0" />
        <mxCell id="WIyWlLk6GJQsqaUBKTNV-1" parent="WIyWlLk6GJQsqaUBKTNV-0" />
        <mxCell id="VsnxXg-3OqQaGHQ3V_Hg-11" value="EDA.py" style="swimlane;whiteSpace=wrap;html=1;startSize=30;" vertex="1" parent="WIyWlLk6GJQsqaUBKTNV-1">
          <mxGeometry width="170" height="1160" as="geometry" />
        </mxCell>
        <mxCell id="VsnxXg-3OqQaGHQ3V_Hg-10" value="Libraries" style="swimlane;horizontal=0;whiteSpace=wrap;html=1;" vertex="1" parent="VsnxXg-3OqQaGHQ3V_Hg-11">
          <mxGeometry y="30" width="820" height="170" as="geometry" />
        </mxCell>
        <mxCell id="VsnxXg-3OqQaGHQ3V_Hg-43" value="pandas&lt;div&gt;&lt;br&gt;&lt;/div&gt;&lt;div&gt;Seaborn&lt;/div&gt;&lt;div&gt;&lt;br&gt;&lt;/div&gt;&lt;div&gt;matplotlib&lt;/div&gt;" style="rounded=0;whiteSpace=wrap;html=1;" vertex="1" parent="VsnxXg-3OqQaGHQ3V_Hg-10">
          <mxGeometry x="50" y="20" width="90" height="100" as="geometry" />
        </mxCell>
        <mxCell id="VsnxXg-3OqQaGHQ3V_Hg-40" value="Function" style="swimlane;horizontal=0;whiteSpace=wrap;html=1;" vertex="1" parent="VsnxXg-3OqQaGHQ3V_Hg-11">
          <mxGeometry y="540" width="820" height="170" as="geometry" />
        </mxCell>
        <mxCell id="VsnxXg-3OqQaGHQ3V_Hg-53" value="plot_numeric_violinplots" style="swimlane;fontStyle=0;align=center;verticalAlign=top;childLayout=stackLayout;horizontal=1;startSize=26;horizontalStack=0;resizeParent=1;resizeLast=0;collapsible=1;marginBottom=0;rounded=0;shadow=0;strokeWidth=1;" vertex="1" parent="VsnxXg-3OqQaGHQ3V_Hg-40">
          <mxGeometry x="30" y="14.5" width="130" height="61" as="geometry">
            <mxRectangle x="40" y="72" width="110" height="26" as="alternateBounds" />
          </mxGeometry>
        </mxCell>
        <mxCell id="VsnxXg-3OqQaGHQ3V_Hg-54" value="self" style="text;align=left;verticalAlign=top;spacingLeft=4;spacingRight=4;overflow=hidden;rotatable=0;points=[[0,0.5],[1,0.5]];portConstraint=eastwest;" vertex="1" parent="VsnxXg-3OqQaGHQ3V_Hg-53">
          <mxGeometry y="26" width="130" height="26" as="geometry" />
        </mxCell>
        <mxCell id="VsnxXg-3OqQaGHQ3V_Hg-55" value="" style="line;html=1;strokeWidth=1;align=left;verticalAlign=middle;spacingTop=-1;spacingLeft=3;spacingRight=3;rotatable=0;labelPosition=right;points=[];portConstraint=eastwest;" vertex="1" parent="VsnxXg-3OqQaGHQ3V_Hg-53">
          <mxGeometry y="52" width="130" height="8" as="geometry" />
        </mxCell>
        <mxCell id="VsnxXg-3OqQaGHQ3V_Hg-81" value="get_datamissing_values" style="swimlane;fontStyle=0;align=center;verticalAlign=top;childLayout=stackLayout;horizontal=1;startSize=26;horizontalStack=0;resizeParent=1;resizeLast=0;collapsible=1;marginBottom=0;rounded=0;shadow=0;strokeWidth=1;" vertex="1" parent="VsnxXg-3OqQaGHQ3V_Hg-40">
          <mxGeometry x="30" y="90" width="130" height="78" as="geometry">
            <mxRectangle x="40" y="72" width="110" height="26" as="alternateBounds" />
          </mxGeometry>
        </mxCell>
        <mxCell id="VsnxXg-3OqQaGHQ3V_Hg-82" value="self&#xa;impute_dict" style="text;align=left;verticalAlign=top;spacingLeft=4;spacingRight=4;overflow=hidden;rotatable=0;points=[[0,0.5],[1,0.5]];portConstraint=eastwest;" vertex="1" parent="VsnxXg-3OqQaGHQ3V_Hg-81">
          <mxGeometry y="26" width="130" height="44" as="geometry" />
        </mxCell>
        <mxCell id="VsnxXg-3OqQaGHQ3V_Hg-83" value="" style="line;html=1;strokeWidth=1;align=left;verticalAlign=middle;spacingTop=-1;spacingLeft=3;spacingRight=3;rotatable=0;labelPosition=right;points=[];portConstraint=eastwest;" vertex="1" parent="VsnxXg-3OqQaGHQ3V_Hg-81">
          <mxGeometry y="70" width="130" height="8" as="geometry" />
        </mxCell>
        <mxCell id="VsnxXg-3OqQaGHQ3V_Hg-42" value="Function" style="swimlane;horizontal=0;whiteSpace=wrap;html=1;" vertex="1" parent="VsnxXg-3OqQaGHQ3V_Hg-11">
          <mxGeometry y="710" width="820" height="170" as="geometry" />
        </mxCell>
        <mxCell id="VsnxXg-3OqQaGHQ3V_Hg-64" value="plot_categorical_features" style="swimlane;fontStyle=0;align=center;verticalAlign=top;childLayout=stackLayout;horizontal=1;startSize=26;horizontalStack=0;resizeParent=1;resizeLast=0;collapsible=1;marginBottom=0;rounded=0;shadow=0;strokeWidth=1;" vertex="1" parent="VsnxXg-3OqQaGHQ3V_Hg-42">
          <mxGeometry x="30" y="10" width="130" height="61" as="geometry">
            <mxRectangle x="40" y="72" width="110" height="26" as="alternateBounds" />
          </mxGeometry>
        </mxCell>
        <mxCell id="VsnxXg-3OqQaGHQ3V_Hg-65" value="self" style="text;align=left;verticalAlign=top;spacingLeft=4;spacingRight=4;overflow=hidden;rotatable=0;points=[[0,0.5],[1,0.5]];portConstraint=eastwest;" vertex="1" parent="VsnxXg-3OqQaGHQ3V_Hg-64">
          <mxGeometry y="26" width="130" height="26" as="geometry" />
        </mxCell>
        <mxCell id="VsnxXg-3OqQaGHQ3V_Hg-66" value="" style="line;html=1;strokeWidth=1;align=left;verticalAlign=middle;spacingTop=-1;spacingLeft=3;spacingRight=3;rotatable=0;labelPosition=right;points=[];portConstraint=eastwest;" vertex="1" parent="VsnxXg-3OqQaGHQ3V_Hg-64">
          <mxGeometry y="52" width="130" height="8" as="geometry" />
        </mxCell>
        <mxCell id="VsnxXg-3OqQaGHQ3V_Hg-78" value="handle_missing_values" style="swimlane;fontStyle=0;align=center;verticalAlign=top;childLayout=stackLayout;horizontal=1;startSize=26;horizontalStack=0;resizeParent=1;resizeLast=0;collapsible=1;marginBottom=0;rounded=0;shadow=0;strokeWidth=1;" vertex="1" parent="VsnxXg-3OqQaGHQ3V_Hg-42">
          <mxGeometry x="30" y="100" width="130" height="68" as="geometry">
            <mxRectangle x="40" y="72" width="110" height="26" as="alternateBounds" />
          </mxGeometry>
        </mxCell>
        <mxCell id="VsnxXg-3OqQaGHQ3V_Hg-79" value="self&#xa;dict" style="text;align=left;verticalAlign=top;spacingLeft=4;spacingRight=4;overflow=hidden;rotatable=0;points=[[0,0.5],[1,0.5]];portConstraint=eastwest;" vertex="1" parent="VsnxXg-3OqQaGHQ3V_Hg-78">
          <mxGeometry y="26" width="130" height="34" as="geometry" />
        </mxCell>
        <mxCell id="VsnxXg-3OqQaGHQ3V_Hg-80" value="" style="line;html=1;strokeWidth=1;align=left;verticalAlign=middle;spacingTop=-1;spacingLeft=3;spacingRight=3;rotatable=0;labelPosition=right;points=[];portConstraint=eastwest;" vertex="1" parent="VsnxXg-3OqQaGHQ3V_Hg-78">
          <mxGeometry y="60" width="130" height="8" as="geometry" />
        </mxCell>
        <mxCell id="VsnxXg-3OqQaGHQ3V_Hg-67" value="Function" style="swimlane;horizontal=0;whiteSpace=wrap;html=1;" vertex="1" parent="VsnxXg-3OqQaGHQ3V_Hg-11">
          <mxGeometry y="880" width="820" height="140" as="geometry" />
        </mxCell>
        <mxCell id="VsnxXg-3OqQaGHQ3V_Hg-68" value="replace_outliers_median" style="swimlane;fontStyle=0;align=center;verticalAlign=top;childLayout=stackLayout;horizontal=1;startSize=26;horizontalStack=0;resizeParent=1;resizeLast=0;collapsible=1;marginBottom=0;rounded=0;shadow=0;strokeWidth=1;" vertex="1" parent="VsnxXg-3OqQaGHQ3V_Hg-67">
          <mxGeometry x="30" y="10" width="130" height="78" as="geometry">
            <mxRectangle x="50" y="10" width="110" height="26" as="alternateBounds" />
          </mxGeometry>
        </mxCell>
        <mxCell id="VsnxXg-3OqQaGHQ3V_Hg-69" value="self&#xa;perc&#xa;" style="text;align=left;verticalAlign=top;spacingLeft=4;spacingRight=4;overflow=hidden;rotatable=0;points=[[0,0.5],[1,0.5]];portConstraint=eastwest;" vertex="1" parent="VsnxXg-3OqQaGHQ3V_Hg-68">
          <mxGeometry y="26" width="130" height="44" as="geometry" />
        </mxCell>
        <mxCell id="VsnxXg-3OqQaGHQ3V_Hg-70" value="" style="line;html=1;strokeWidth=1;align=left;verticalAlign=middle;spacingTop=-1;spacingLeft=3;spacingRight=3;rotatable=0;labelPosition=right;points=[];portConstraint=eastwest;" vertex="1" parent="VsnxXg-3OqQaGHQ3V_Hg-68">
          <mxGeometry y="70" width="130" height="8" as="geometry" />
        </mxCell>
        <mxCell id="VsnxXg-3OqQaGHQ3V_Hg-12" value="function" style="swimlane;horizontal=0;whiteSpace=wrap;html=1;" vertex="1" parent="WIyWlLk6GJQsqaUBKTNV-1">
          <mxGeometry y="200" width="820" height="170" as="geometry" />
        </mxCell>
        <mxCell id="VsnxXg-3OqQaGHQ3V_Hg-17" value="__init__" style="swimlane;fontStyle=0;align=center;verticalAlign=top;childLayout=stackLayout;horizontal=1;startSize=26;horizontalStack=0;resizeParent=1;resizeLast=0;collapsible=1;marginBottom=0;rounded=0;shadow=0;strokeWidth=1;" vertex="1" parent="VsnxXg-3OqQaGHQ3V_Hg-12">
          <mxGeometry x="40" y="20" width="90" height="112" as="geometry">
            <mxRectangle x="40" y="72" width="110" height="26" as="alternateBounds" />
          </mxGeometry>
        </mxCell>
        <mxCell id="VsnxXg-3OqQaGHQ3V_Hg-18" value="self" style="text;align=left;verticalAlign=top;spacingLeft=4;spacingRight=4;overflow=hidden;rotatable=0;points=[[0,0.5],[1,0.5]];portConstraint=eastwest;" vertex="1" parent="VsnxXg-3OqQaGHQ3V_Hg-17">
          <mxGeometry y="26" width="90" height="26" as="geometry" />
        </mxCell>
        <mxCell id="VsnxXg-3OqQaGHQ3V_Hg-19" value="data" style="text;align=left;verticalAlign=top;spacingLeft=4;spacingRight=4;overflow=hidden;rotatable=0;points=[[0,0.5],[1,0.5]];portConstraint=eastwest;rounded=0;shadow=0;html=0;" vertex="1" parent="VsnxXg-3OqQaGHQ3V_Hg-17">
          <mxGeometry y="52" width="90" height="26" as="geometry" />
        </mxCell>
        <mxCell id="VsnxXg-3OqQaGHQ3V_Hg-20" value="target_column" style="text;align=left;verticalAlign=top;spacingLeft=4;spacingRight=4;overflow=hidden;rotatable=0;points=[[0,0.5],[1,0.5]];portConstraint=eastwest;rounded=0;shadow=0;html=0;" vertex="1" parent="VsnxXg-3OqQaGHQ3V_Hg-17">
          <mxGeometry y="78" width="90" height="26" as="geometry" />
        </mxCell>
        <mxCell id="VsnxXg-3OqQaGHQ3V_Hg-21" value="" style="line;html=1;strokeWidth=1;align=left;verticalAlign=middle;spacingTop=-1;spacingLeft=3;spacingRight=3;rotatable=0;labelPosition=right;points=[];portConstraint=eastwest;" vertex="1" parent="VsnxXg-3OqQaGHQ3V_Hg-17">
          <mxGeometry y="104" width="90" height="8" as="geometry" />
        </mxCell>
        <mxCell id="VsnxXg-3OqQaGHQ3V_Hg-13" value="Function" style="swimlane;horizontal=0;whiteSpace=wrap;html=1;" vertex="1" parent="WIyWlLk6GJQsqaUBKTNV-1">
          <mxGeometry y="370" width="820" height="170" as="geometry" />
        </mxCell>
        <mxCell id="VsnxXg-3OqQaGHQ3V_Hg-47" value="plot_numeric_histograms" style="swimlane;fontStyle=0;align=center;verticalAlign=top;childLayout=stackLayout;horizontal=1;startSize=26;horizontalStack=0;resizeParent=1;resizeLast=0;collapsible=1;marginBottom=0;rounded=0;shadow=0;strokeWidth=1;" vertex="1" parent="VsnxXg-3OqQaGHQ3V_Hg-13">
          <mxGeometry x="30" y="29" width="130" height="61" as="geometry">
            <mxRectangle x="40" y="72" width="110" height="26" as="alternateBounds" />
          </mxGeometry>
        </mxCell>
        <mxCell id="VsnxXg-3OqQaGHQ3V_Hg-48" value="self" style="text;align=left;verticalAlign=top;spacingLeft=4;spacingRight=4;overflow=hidden;rotatable=0;points=[[0,0.5],[1,0.5]];portConstraint=eastwest;" vertex="1" parent="VsnxXg-3OqQaGHQ3V_Hg-47">
          <mxGeometry y="26" width="130" height="26" as="geometry" />
        </mxCell>
        <mxCell id="VsnxXg-3OqQaGHQ3V_Hg-51" value="" style="line;html=1;strokeWidth=1;align=left;verticalAlign=middle;spacingTop=-1;spacingLeft=3;spacingRight=3;rotatable=0;labelPosition=right;points=[];portConstraint=eastwest;" vertex="1" parent="VsnxXg-3OqQaGHQ3V_Hg-47">
          <mxGeometry y="52" width="130" height="8" as="geometry" />
        </mxCell>
        <mxCell id="VsnxXg-3OqQaGHQ3V_Hg-14" value="Model.py&lt;span style=&quot;color: rgba(0, 0, 0, 0); font-family: monospace; font-size: 0px; font-weight: 400; text-align: start; text-wrap: nowrap;&quot;&gt;%3CmxGraphModel%3E%3Croot%3E%3CmxCell%20id%3D%220%22%2F%3E%3CmxCell%20id%3D%221%22%20parent%3D%220%22%2F%3E%3CmxCell%20id%3D%222%22%20value%3D%22Vertical%20Container%22%20style%3D%22swimlane%3BwhiteSpace%3Dwrap%3Bhtml%3D1%3B%22%20vertex%3D%221%22%20parent%3D%221%22%3E%3CmxGeometry%20width%3D%22230%22%20height%3D%221170%22%20as%3D%22geometry%22%2F%3E%3C%2FmxCell%3E%3CmxCell%20id%3D%223%22%20value%3D%22Horizontal%20Container%22%20style%3D%22swimlane%3Bhorizontal%3D0%3BwhiteSpace%3Dwrap%3Bhtml%3D1%3B%22%20vertex%3D%221%22%20parent%3D%222%22%3E%3CmxGeometry%20y%3D%2230%22%20width%3D%22820%22%20height%3D%22170%22%20as%3D%22geometry%22%2F%3E%3C%2FmxCell%3E%3C%2Froot%3E%3C%2FmxGraphModel%3E&lt;/span&gt;" style="swimlane;whiteSpace=wrap;html=1;startSize=30;" vertex="1" parent="WIyWlLk6GJQsqaUBKTNV-1">
          <mxGeometry x="170" width="170" height="1160" as="geometry" />
        </mxCell>
        <mxCell id="VsnxXg-3OqQaGHQ3V_Hg-44" value="pandas&lt;div&gt;&lt;br&gt;&lt;/div&gt;&lt;div&gt;xgboost&lt;/div&gt;&lt;div&gt;&lt;br&gt;&lt;/div&gt;&lt;div&gt;sklearn&lt;/div&gt;&lt;div&gt;&lt;br&gt;&lt;/div&gt;&lt;div&gt;plotlib&lt;/div&gt;" style="rounded=0;whiteSpace=wrap;html=1;" vertex="1" parent="VsnxXg-3OqQaGHQ3V_Hg-14">
          <mxGeometry x="40" y="50" width="90" height="110" as="geometry" />
        </mxCell>
        <mxCell id="VsnxXg-3OqQaGHQ3V_Hg-71" value="Function" style="swimlane;horizontal=0;whiteSpace=wrap;html=1;" vertex="1" parent="VsnxXg-3OqQaGHQ3V_Hg-14">
          <mxGeometry x="-170" y="1020" width="820" height="140" as="geometry" />
        </mxCell>
        <mxCell id="VsnxXg-3OqQaGHQ3V_Hg-72" value="replace_outliers" style="swimlane;fontStyle=0;align=center;verticalAlign=top;childLayout=stackLayout;horizontal=1;startSize=30;horizontalStack=0;resizeParent=1;resizeLast=0;collapsible=1;marginBottom=0;rounded=0;shadow=0;strokeWidth=1;" vertex="1" parent="VsnxXg-3OqQaGHQ3V_Hg-71">
          <mxGeometry x="40" width="110" height="80" as="geometry">
            <mxRectangle x="40" width="110" height="26" as="alternateBounds" />
          </mxGeometry>
        </mxCell>
        <mxCell id="VsnxXg-3OqQaGHQ3V_Hg-73" value="self&#xa;columns&#xa;perc" style="text;align=left;verticalAlign=top;spacingLeft=4;spacingRight=4;overflow=hidden;rotatable=0;points=[[0,0.5],[1,0.5]];portConstraint=eastwest;" vertex="1" parent="VsnxXg-3OqQaGHQ3V_Hg-72">
          <mxGeometry y="30" width="110" height="26" as="geometry" />
        </mxCell>
        <mxCell id="VsnxXg-3OqQaGHQ3V_Hg-107" value="plot_roc_auc" style="swimlane;fontStyle=0;align=center;verticalAlign=top;childLayout=stackLayout;horizontal=1;startSize=26;horizontalStack=0;resizeParent=1;resizeLast=0;collapsible=1;marginBottom=0;rounded=0;shadow=0;strokeWidth=1;" vertex="1" parent="VsnxXg-3OqQaGHQ3V_Hg-71">
          <mxGeometry x="210" y="14" width="90" height="112" as="geometry">
            <mxRectangle x="30" y="730" width="110" height="26" as="alternateBounds" />
          </mxGeometry>
        </mxCell>
        <mxCell id="VsnxXg-3OqQaGHQ3V_Hg-108" value="self" style="text;align=left;verticalAlign=top;spacingLeft=4;spacingRight=4;overflow=hidden;rotatable=0;points=[[0,0.5],[1,0.5]];portConstraint=eastwest;" vertex="1" parent="VsnxXg-3OqQaGHQ3V_Hg-107">
          <mxGeometry y="26" width="90" height="26" as="geometry" />
        </mxCell>
        <mxCell id="VsnxXg-3OqQaGHQ3V_Hg-109" value="Y_test&#xa;y_prob" style="text;align=left;verticalAlign=top;spacingLeft=4;spacingRight=4;overflow=hidden;rotatable=0;points=[[0,0.5],[1,0.5]];portConstraint=eastwest;rounded=0;shadow=0;html=0;" vertex="1" parent="VsnxXg-3OqQaGHQ3V_Hg-107">
          <mxGeometry y="52" width="90" height="58" as="geometry" />
        </mxCell>
        <mxCell id="VsnxXg-3OqQaGHQ3V_Hg-89" value="preprocess_data" style="swimlane;fontStyle=0;align=center;verticalAlign=top;childLayout=stackLayout;horizontal=1;startSize=26;horizontalStack=0;resizeParent=1;resizeLast=0;collapsible=1;marginBottom=0;rounded=0;shadow=0;strokeWidth=1;" vertex="1" parent="VsnxXg-3OqQaGHQ3V_Hg-14">
          <mxGeometry x="30" y="370" width="90" height="80" as="geometry">
            <mxRectangle x="40" y="72" width="110" height="26" as="alternateBounds" />
          </mxGeometry>
        </mxCell>
        <mxCell id="VsnxXg-3OqQaGHQ3V_Hg-90" value="self" style="text;align=left;verticalAlign=top;spacingLeft=4;spacingRight=4;overflow=hidden;rotatable=0;points=[[0,0.5],[1,0.5]];portConstraint=eastwest;" vertex="1" parent="VsnxXg-3OqQaGHQ3V_Hg-89">
          <mxGeometry y="26" width="90" height="26" as="geometry" />
        </mxCell>
        <mxCell id="VsnxXg-3OqQaGHQ3V_Hg-91" value="X" style="text;align=left;verticalAlign=top;spacingLeft=4;spacingRight=4;overflow=hidden;rotatable=0;points=[[0,0.5],[1,0.5]];portConstraint=eastwest;rounded=0;shadow=0;html=0;" vertex="1" parent="VsnxXg-3OqQaGHQ3V_Hg-89">
          <mxGeometry y="52" width="90" height="26" as="geometry" />
        </mxCell>
        <mxCell id="VsnxXg-3OqQaGHQ3V_Hg-94" value="benchmark_logistic_regression" style="swimlane;fontStyle=0;align=center;verticalAlign=top;childLayout=stackLayout;horizontal=1;startSize=26;horizontalStack=0;resizeParent=1;resizeLast=0;collapsible=1;marginBottom=0;rounded=0;shadow=0;strokeWidth=1;" vertex="1" parent="VsnxXg-3OqQaGHQ3V_Hg-14">
          <mxGeometry x="10" y="550" width="150" height="60" as="geometry">
            <mxRectangle x="10" y="550" width="110" height="26" as="alternateBounds" />
          </mxGeometry>
        </mxCell>
        <mxCell id="VsnxXg-3OqQaGHQ3V_Hg-95" value="self" style="text;align=left;verticalAlign=top;spacingLeft=4;spacingRight=4;overflow=hidden;rotatable=0;points=[[0,0.5],[1,0.5]];portConstraint=eastwest;" vertex="1" parent="VsnxXg-3OqQaGHQ3V_Hg-94">
          <mxGeometry y="26" width="150" height="26" as="geometry" />
        </mxCell>
        <mxCell id="VsnxXg-3OqQaGHQ3V_Hg-98" value="" style="line;html=1;strokeWidth=1;align=left;verticalAlign=middle;spacingTop=-1;spacingLeft=3;spacingRight=3;rotatable=0;labelPosition=right;points=[];portConstraint=eastwest;" vertex="1" parent="VsnxXg-3OqQaGHQ3V_Hg-94">
          <mxGeometry y="52" width="150" height="8" as="geometry" />
        </mxCell>
        <mxCell id="VsnxXg-3OqQaGHQ3V_Hg-100" value="plot_roc_auc" style="swimlane;fontStyle=0;align=center;verticalAlign=top;childLayout=stackLayout;horizontal=1;startSize=26;horizontalStack=0;resizeParent=1;resizeLast=0;collapsible=1;marginBottom=0;rounded=0;shadow=0;strokeWidth=1;" vertex="1" parent="VsnxXg-3OqQaGHQ3V_Hg-14">
          <mxGeometry x="20" y="720" width="90" height="90" as="geometry">
            <mxRectangle x="30" y="730" width="110" height="26" as="alternateBounds" />
          </mxGeometry>
        </mxCell>
        <mxCell id="VsnxXg-3OqQaGHQ3V_Hg-101" value="self" style="text;align=left;verticalAlign=top;spacingLeft=4;spacingRight=4;overflow=hidden;rotatable=0;points=[[0,0.5],[1,0.5]];portConstraint=eastwest;" vertex="1" parent="VsnxXg-3OqQaGHQ3V_Hg-100">
          <mxGeometry y="26" width="90" height="26" as="geometry" />
        </mxCell>
        <mxCell id="VsnxXg-3OqQaGHQ3V_Hg-102" value="Y_test&#xa;y_prob" style="text;align=left;verticalAlign=top;spacingLeft=4;spacingRight=4;overflow=hidden;rotatable=0;points=[[0,0.5],[1,0.5]];portConstraint=eastwest;rounded=0;shadow=0;html=0;" vertex="1" parent="VsnxXg-3OqQaGHQ3V_Hg-100">
          <mxGeometry y="52" width="90" height="38" as="geometry" />
        </mxCell>
        <mxCell id="VsnxXg-3OqQaGHQ3V_Hg-104" value="prepare_data" style="swimlane;fontStyle=0;align=center;verticalAlign=top;childLayout=stackLayout;horizontal=1;startSize=26;horizontalStack=0;resizeParent=1;resizeLast=0;collapsible=1;marginBottom=0;rounded=0;shadow=0;strokeWidth=1;" vertex="1" parent="VsnxXg-3OqQaGHQ3V_Hg-14">
          <mxGeometry x="30" y="890" width="90" height="52" as="geometry">
            <mxRectangle x="30" y="730" width="110" height="26" as="alternateBounds" />
          </mxGeometry>
        </mxCell>
        <mxCell id="VsnxXg-3OqQaGHQ3V_Hg-105" value="self" style="text;align=left;verticalAlign=top;spacingLeft=4;spacingRight=4;overflow=hidden;rotatable=0;points=[[0,0.5],[1,0.5]];portConstraint=eastwest;" vertex="1" parent="VsnxXg-3OqQaGHQ3V_Hg-104">
          <mxGeometry y="26" width="90" height="26" as="geometry" />
        </mxCell>
        <mxCell id="VsnxXg-3OqQaGHQ3V_Hg-110" value="calculate_scale_pos_weight" style="swimlane;fontStyle=0;align=center;verticalAlign=top;childLayout=stackLayout;horizontal=1;startSize=26;horizontalStack=0;resizeParent=1;resizeLast=0;collapsible=1;marginBottom=0;rounded=0;shadow=0;strokeWidth=1;" vertex="1" parent="VsnxXg-3OqQaGHQ3V_Hg-14">
          <mxGeometry x="10" y="610" width="150" height="86" as="geometry">
            <mxRectangle x="10" y="610" width="110" height="26" as="alternateBounds" />
          </mxGeometry>
        </mxCell>
        <mxCell id="VsnxXg-3OqQaGHQ3V_Hg-111" value="self" style="text;align=left;verticalAlign=top;spacingLeft=4;spacingRight=4;overflow=hidden;rotatable=0;points=[[0,0.5],[1,0.5]];portConstraint=eastwest;" vertex="1" parent="VsnxXg-3OqQaGHQ3V_Hg-110">
          <mxGeometry y="26" width="150" height="26" as="geometry" />
        </mxCell>
        <mxCell id="VsnxXg-3OqQaGHQ3V_Hg-112" value="y" style="text;align=left;verticalAlign=top;spacingLeft=4;spacingRight=4;overflow=hidden;rotatable=0;points=[[0,0.5],[1,0.5]];portConstraint=eastwest;rounded=0;shadow=0;html=0;" vertex="1" parent="VsnxXg-3OqQaGHQ3V_Hg-110">
          <mxGeometry y="52" width="150" height="26" as="geometry" />
        </mxCell>
        <mxCell id="VsnxXg-3OqQaGHQ3V_Hg-114" value="" style="line;html=1;strokeWidth=1;align=left;verticalAlign=middle;spacingTop=-1;spacingLeft=3;spacingRight=3;rotatable=0;labelPosition=right;points=[];portConstraint=eastwest;" vertex="1" parent="VsnxXg-3OqQaGHQ3V_Hg-110">
          <mxGeometry y="78" width="150" height="8" as="geometry" />
        </mxCell>
        <mxCell id="VsnxXg-3OqQaGHQ3V_Hg-115" value="train_xgboost_model" style="swimlane;fontStyle=0;align=center;verticalAlign=top;childLayout=stackLayout;horizontal=1;startSize=26;horizontalStack=0;resizeParent=1;resizeLast=0;collapsible=1;marginBottom=0;rounded=0;shadow=0;strokeWidth=1;" vertex="1" parent="VsnxXg-3OqQaGHQ3V_Hg-14">
          <mxGeometry x="20" y="950" width="120" height="70" as="geometry">
            <mxRectangle x="30" y="730" width="110" height="26" as="alternateBounds" />
          </mxGeometry>
        </mxCell>
        <mxCell id="VsnxXg-3OqQaGHQ3V_Hg-116" value="self&#xa;k_folds" style="text;align=left;verticalAlign=top;spacingLeft=4;spacingRight=4;overflow=hidden;rotatable=0;points=[[0,0.5],[1,0.5]];portConstraint=eastwest;" vertex="1" parent="VsnxXg-3OqQaGHQ3V_Hg-115">
          <mxGeometry y="26" width="120" height="34" as="geometry" />
        </mxCell>
        <mxCell id="VsnxXg-3OqQaGHQ3V_Hg-118" value="evaluate_model" style="swimlane;fontStyle=0;align=center;verticalAlign=top;childLayout=stackLayout;horizontal=1;startSize=26;horizontalStack=0;resizeParent=1;resizeLast=0;collapsible=1;marginBottom=0;rounded=0;shadow=0;strokeWidth=1;" vertex="1" parent="VsnxXg-3OqQaGHQ3V_Hg-14">
          <mxGeometry x="30" y="820" width="90" height="52" as="geometry">
            <mxRectangle x="30" y="730" width="110" height="26" as="alternateBounds" />
          </mxGeometry>
        </mxCell>
        <mxCell id="VsnxXg-3OqQaGHQ3V_Hg-119" value="self" style="text;align=left;verticalAlign=top;spacingLeft=4;spacingRight=4;overflow=hidden;rotatable=0;points=[[0,0.5],[1,0.5]];portConstraint=eastwest;" vertex="1" parent="VsnxXg-3OqQaGHQ3V_Hg-118">
          <mxGeometry y="26" width="90" height="26" as="geometry" />
        </mxCell>
        <mxCell id="VsnxXg-3OqQaGHQ3V_Hg-121" value="calculate_pd" style="swimlane;fontStyle=0;align=center;verticalAlign=top;childLayout=stackLayout;horizontal=1;startSize=26;horizontalStack=0;resizeParent=1;resizeLast=0;collapsible=1;marginBottom=0;rounded=0;shadow=0;strokeWidth=1;" vertex="1" parent="VsnxXg-3OqQaGHQ3V_Hg-14">
          <mxGeometry x="10" y="470" width="90" height="52" as="geometry">
            <mxRectangle x="40" y="72" width="110" height="26" as="alternateBounds" />
          </mxGeometry>
        </mxCell>
        <mxCell id="VsnxXg-3OqQaGHQ3V_Hg-122" value="self" style="text;align=left;verticalAlign=top;spacingLeft=4;spacingRight=4;overflow=hidden;rotatable=0;points=[[0,0.5],[1,0.5]];portConstraint=eastwest;" vertex="1" parent="VsnxXg-3OqQaGHQ3V_Hg-121">
          <mxGeometry y="26" width="90" height="26" as="geometry" />
        </mxCell>
        <mxCell id="VsnxXg-3OqQaGHQ3V_Hg-84" value="__init__" style="swimlane;fontStyle=0;align=center;verticalAlign=top;childLayout=stackLayout;horizontal=1;startSize=26;horizontalStack=0;resizeParent=1;resizeLast=0;collapsible=1;marginBottom=0;rounded=0;shadow=0;strokeWidth=1;" vertex="1" parent="VsnxXg-3OqQaGHQ3V_Hg-14">
          <mxGeometry x="10" y="200" width="90" height="100" as="geometry">
            <mxRectangle x="40" y="72" width="110" height="26" as="alternateBounds" />
          </mxGeometry>
        </mxCell>
        <mxCell id="VsnxXg-3OqQaGHQ3V_Hg-85" value="self" style="text;align=left;verticalAlign=top;spacingLeft=4;spacingRight=4;overflow=hidden;rotatable=0;points=[[0,0.5],[1,0.5]];portConstraint=eastwest;" vertex="1" parent="VsnxXg-3OqQaGHQ3V_Hg-84">
          <mxGeometry y="26" width="90" height="26" as="geometry" />
        </mxCell>
        <mxCell id="VsnxXg-3OqQaGHQ3V_Hg-86" value="data" style="text;align=left;verticalAlign=top;spacingLeft=4;spacingRight=4;overflow=hidden;rotatable=0;points=[[0,0.5],[1,0.5]];portConstraint=eastwest;rounded=0;shadow=0;html=0;" vertex="1" parent="VsnxXg-3OqQaGHQ3V_Hg-84">
          <mxGeometry y="52" width="90" height="26" as="geometry" />
        </mxCell>
        <mxCell id="VsnxXg-3OqQaGHQ3V_Hg-87" value="target_column" style="text;align=left;verticalAlign=top;spacingLeft=4;spacingRight=4;overflow=hidden;rotatable=0;points=[[0,0.5],[1,0.5]];portConstraint=eastwest;rounded=0;shadow=0;html=0;" vertex="1" parent="VsnxXg-3OqQaGHQ3V_Hg-84">
          <mxGeometry y="78" width="90" height="22" as="geometry" />
        </mxCell>
        <mxCell id="VsnxXg-3OqQaGHQ3V_Hg-124" value="calculate_ead" style="swimlane;fontStyle=0;align=center;verticalAlign=top;childLayout=stackLayout;horizontal=1;startSize=26;horizontalStack=0;resizeParent=1;resizeLast=0;collapsible=1;marginBottom=0;rounded=0;shadow=0;strokeWidth=1;" vertex="1" parent="VsnxXg-3OqQaGHQ3V_Hg-14">
          <mxGeometry x="10" y="310" width="90" height="52" as="geometry">
            <mxRectangle x="40" y="72" width="110" height="26" as="alternateBounds" />
          </mxGeometry>
        </mxCell>
        <mxCell id="VsnxXg-3OqQaGHQ3V_Hg-125" value="self" style="text;align=left;verticalAlign=top;spacingLeft=4;spacingRight=4;overflow=hidden;rotatable=0;points=[[0,0.5],[1,0.5]];portConstraint=eastwest;" vertex="1" parent="VsnxXg-3OqQaGHQ3V_Hg-124">
          <mxGeometry y="26" width="90" height="26" as="geometry" />
        </mxCell>
        <mxCell id="VsnxXg-3OqQaGHQ3V_Hg-16" value="load_data.py&lt;span style=&quot;color: rgba(0, 0, 0, 0); font-family: monospace; font-size: 0px; font-weight: 400; text-align: start; text-wrap: nowrap;&quot;&gt;%3CmxGraphModel%3E%3Croot%3E%3CmxCell%20id%3D%220%22%2F%3E%3CmxCell%20id%3D%221%22%20parent%3D%220%22%2F%3E%3CmxCell%20id%3D%222%22%20value%3D%22Vertical%20Container%22%20style%3D%22swimlane%3BwhiteSpace%3Dwrap%3Bhtml%3D1%3B%22%20vertex%3D%221%22%20parent%3D%221%22%3E%3CmxGeometry%20width%3D%22230%22%20height%3D%221170%22%20as%3D%22geometry%22%2F%3E%3C%2FmxCell%3E%3CmxCell%20id%3D%223%22%20value%3D%22Horizontal%20Container%22%20style%3D%22swimlane%3Bhorizontal%3D0%3BwhiteSpace%3Dwrap%3Bhtml%3D1%3B%22%20vertex%3D%221%22%20parent%3D%222%22%3E%3CmxGeometry%20y%3D%2230%22%20width%3D%22820%22%20height%3D%22170%22%20as%3D%22geometry%22%2F%3E%3C%2FmxCell%3E%3C%2Froot%3E%3C%2FmxGraphModel%3E&lt;/span&gt;" style="swimlane;whiteSpace=wrap;html=1;startSize=30;" vertex="1" parent="WIyWlLk6GJQsqaUBKTNV-1">
          <mxGeometry x="340" width="150" height="1160" as="geometry" />
        </mxCell>
        <mxCell id="VsnxXg-3OqQaGHQ3V_Hg-41" value="pandas" style="rounded=0;whiteSpace=wrap;html=1;" vertex="1" parent="VsnxXg-3OqQaGHQ3V_Hg-16">
          <mxGeometry x="29" y="50" width="90" height="30" as="geometry" />
        </mxCell>
        <mxCell id="VsnxXg-3OqQaGHQ3V_Hg-126" value="__init__" style="swimlane;fontStyle=0;align=center;verticalAlign=top;childLayout=stackLayout;horizontal=1;startSize=26;horizontalStack=0;resizeParent=1;resizeLast=0;collapsible=1;marginBottom=0;rounded=0;shadow=0;strokeWidth=1;" vertex="1" parent="VsnxXg-3OqQaGHQ3V_Hg-16">
          <mxGeometry x="39" y="210" width="90" height="80" as="geometry">
            <mxRectangle x="40" y="72" width="110" height="26" as="alternateBounds" />
          </mxGeometry>
        </mxCell>
        <mxCell id="VsnxXg-3OqQaGHQ3V_Hg-127" value="self" style="text;align=left;verticalAlign=top;spacingLeft=4;spacingRight=4;overflow=hidden;rotatable=0;points=[[0,0.5],[1,0.5]];portConstraint=eastwest;" vertex="1" parent="VsnxXg-3OqQaGHQ3V_Hg-126">
          <mxGeometry y="26" width="90" height="26" as="geometry" />
        </mxCell>
        <mxCell id="VsnxXg-3OqQaGHQ3V_Hg-128" value="filepath" style="text;align=left;verticalAlign=top;spacingLeft=4;spacingRight=4;overflow=hidden;rotatable=0;points=[[0,0.5],[1,0.5]];portConstraint=eastwest;rounded=0;shadow=0;html=0;" vertex="1" parent="VsnxXg-3OqQaGHQ3V_Hg-126">
          <mxGeometry y="52" width="90" height="26" as="geometry" />
        </mxCell>
        <mxCell id="VsnxXg-3OqQaGHQ3V_Hg-130" value="load_data" style="swimlane;fontStyle=0;align=center;verticalAlign=top;childLayout=stackLayout;horizontal=1;startSize=26;horizontalStack=0;resizeParent=1;resizeLast=0;collapsible=1;marginBottom=0;rounded=0;shadow=0;strokeWidth=1;" vertex="1" parent="VsnxXg-3OqQaGHQ3V_Hg-16">
          <mxGeometry x="29" y="390" width="90" height="80" as="geometry">
            <mxRectangle x="40" y="72" width="110" height="26" as="alternateBounds" />
          </mxGeometry>
        </mxCell>
        <mxCell id="VsnxXg-3OqQaGHQ3V_Hg-131" value="self" style="text;align=left;verticalAlign=top;spacingLeft=4;spacingRight=4;overflow=hidden;rotatable=0;points=[[0,0.5],[1,0.5]];portConstraint=eastwest;" vertex="1" parent="VsnxXg-3OqQaGHQ3V_Hg-130">
          <mxGeometry y="26" width="90" height="26" as="geometry" />
        </mxCell>
        <mxCell id="VsnxXg-3OqQaGHQ3V_Hg-133" value="get_data_summary" style="swimlane;fontStyle=0;align=center;verticalAlign=top;childLayout=stackLayout;horizontal=1;startSize=26;horizontalStack=0;resizeParent=1;resizeLast=0;collapsible=1;marginBottom=0;rounded=0;shadow=0;strokeWidth=1;" vertex="1" parent="VsnxXg-3OqQaGHQ3V_Hg-16">
          <mxGeometry x="30" y="560" width="110" height="80" as="geometry">
            <mxRectangle x="40" y="72" width="110" height="26" as="alternateBounds" />
          </mxGeometry>
        </mxCell>
        <mxCell id="VsnxXg-3OqQaGHQ3V_Hg-134" value="self" style="text;align=left;verticalAlign=top;spacingLeft=4;spacingRight=4;overflow=hidden;rotatable=0;points=[[0,0.5],[1,0.5]];portConstraint=eastwest;" vertex="1" parent="VsnxXg-3OqQaGHQ3V_Hg-133">
          <mxGeometry y="26" width="110" height="26" as="geometry" />
        </mxCell>
        <mxCell id="VsnxXg-3OqQaGHQ3V_Hg-136" value="get_data_info" style="swimlane;fontStyle=0;align=center;verticalAlign=top;childLayout=stackLayout;horizontal=1;startSize=26;horizontalStack=0;resizeParent=1;resizeLast=0;collapsible=1;marginBottom=0;rounded=0;shadow=0;strokeWidth=1;" vertex="1" parent="VsnxXg-3OqQaGHQ3V_Hg-16">
          <mxGeometry x="30" y="730" width="90" height="80" as="geometry">
            <mxRectangle x="40" y="72" width="110" height="26" as="alternateBounds" />
          </mxGeometry>
        </mxCell>
        <mxCell id="VsnxXg-3OqQaGHQ3V_Hg-137" value="self" style="text;align=left;verticalAlign=top;spacingLeft=4;spacingRight=4;overflow=hidden;rotatable=0;points=[[0,0.5],[1,0.5]];portConstraint=eastwest;" vertex="1" parent="VsnxXg-3OqQaGHQ3V_Hg-136">
          <mxGeometry y="26" width="90" height="26" as="geometry" />
        </mxCell>
        <mxCell id="VsnxXg-3OqQaGHQ3V_Hg-24" value="risk_analysis.py&lt;span style=&quot;color: rgba(0, 0, 0, 0); font-family: monospace; font-size: 0px; font-weight: 400; text-align: start; text-wrap: nowrap;&quot;&gt;%3CmxGraphModel%3E%3Croot%3E%3CmxCell%20id%3D%220%22%2F%3E%3CmxCell%20id%3D%221%22%20parent%3D%220%22%2F%3E%3CmxCell%20id%3D%222%22%20value%3D%22Vertical%20Container%22%20style%3D%22swimlane%3BwhiteSpace%3Dwrap%3Bhtml%3D1%3B%22%20vertex%3D%221%22%20parent%3D%221%22%3E%3CmxGeometry%20width%3D%22230%22%20height%3D%221170%22%20as%3D%22geometry%22%2F%3E%3C%2FmxCell%3E%3CmxCell%20id%3D%223%22%20value%3D%22Horizontal%20Container%22%20style%3D%22swimlane%3Bhorizontal%3D0%3BwhiteSpace%3Dwrap%3Bhtml%3D1%3B%22%20vertex%3D%221%22%20parent%3D%222%22%3E%3CmxGeometry%20y%3D%2230%22%20width%3D%22820%22%20height%3D%22170%22%20as%3D%22geometry%22%2F%3E%3C%2FmxCell%3E%3C%2Froot%3E%3C%2FmxGraphModel%3E&lt;/span&gt;" style="swimlane;whiteSpace=wrap;html=1;startSize=30;" vertex="1" parent="WIyWlLk6GJQsqaUBKTNV-1">
          <mxGeometry x="490" width="170" height="1160" as="geometry" />
        </mxCell>
        <mxCell id="VsnxXg-3OqQaGHQ3V_Hg-32" value="forward.py&lt;span style=&quot;color: rgba(0, 0, 0, 0); font-family: monospace; font-size: 0px; font-weight: 400; text-align: start; text-wrap: nowrap;&quot;&gt;%3CmxGraphModel%3E%3Croot%3E%3CmxCell%20id%3D%220%22%2F%3E%3CmxCell%20id%3D%221%22%20parent%3D%220%22%2F%3E%3CmxCell%20id%3D%222%22%20value%3D%22Vertical%20Container%22%20style%3D%22swimlane%3BwhiteSpace%3Dwrap%3Bhtml%3D1%3B%22%20vertex%3D%221%22%20parent%3D%221%22%3E%3CmxGeometry%20width%3D%22230%22%20height%3D%221170%22%20as%3D%22geometry%22%2F%3E%3C%2FmxCell%3E%3CmxCell%20id%3D%223%22%20value%3D%22Horizontal%20Container%22%20style%3D%22swimlane%3Bhorizontal%3D0%3BwhiteSpace%3Dwrap%3Bhtml%3D1%3B%22%20vertex%3D%221%22%20parent%3D%222%22%3E%3CmxGeometry%20y%3D%2230%22%20width%3D%22820%22%20height%3D%22170%22%20as%3D%22geometry%22%2F%3E%3C%2FmxCell%3E%3C%2Froot%3E%3C%2FmxGraphModel%3E&lt;/span&gt;" style="swimlane;whiteSpace=wrap;html=1;startSize=30;" vertex="1" parent="VsnxXg-3OqQaGHQ3V_Hg-24">
          <mxGeometry x="170" width="160" height="1160" as="geometry" />
        </mxCell>
        <mxCell id="VsnxXg-3OqQaGHQ3V_Hg-46" value="pickel&lt;div&gt;&lt;br&gt;&lt;/div&gt;&lt;div&gt;pandas&lt;/div&gt;" style="rounded=0;whiteSpace=wrap;html=1;" vertex="1" parent="VsnxXg-3OqQaGHQ3V_Hg-32">
          <mxGeometry x="23" y="50" width="90" height="110" as="geometry" />
        </mxCell>
        <mxCell id="VsnxXg-3OqQaGHQ3V_Hg-155" value="__init__" style="swimlane;fontStyle=0;align=center;verticalAlign=top;childLayout=stackLayout;horizontal=1;startSize=26;horizontalStack=0;resizeParent=1;resizeLast=0;collapsible=1;marginBottom=0;rounded=0;shadow=0;strokeWidth=1;" vertex="1" parent="VsnxXg-3OqQaGHQ3V_Hg-32">
          <mxGeometry x="25" y="220" width="90" height="100" as="geometry">
            <mxRectangle x="40" y="72" width="110" height="26" as="alternateBounds" />
          </mxGeometry>
        </mxCell>
        <mxCell id="VsnxXg-3OqQaGHQ3V_Hg-156" value="self" style="text;align=left;verticalAlign=top;spacingLeft=4;spacingRight=4;overflow=hidden;rotatable=0;points=[[0,0.5],[1,0.5]];portConstraint=eastwest;" vertex="1" parent="VsnxXg-3OqQaGHQ3V_Hg-155">
          <mxGeometry y="26" width="90" height="26" as="geometry" />
        </mxCell>
        <mxCell id="VsnxXg-3OqQaGHQ3V_Hg-157" value="model_path" style="text;align=left;verticalAlign=top;spacingLeft=4;spacingRight=4;overflow=hidden;rotatable=0;points=[[0,0.5],[1,0.5]];portConstraint=eastwest;rounded=0;shadow=0;html=0;" vertex="1" parent="VsnxXg-3OqQaGHQ3V_Hg-155">
          <mxGeometry y="52" width="90" height="26" as="geometry" />
        </mxCell>
        <mxCell id="VsnxXg-3OqQaGHQ3V_Hg-158" value="encoder_path" style="text;align=left;verticalAlign=top;spacingLeft=4;spacingRight=4;overflow=hidden;rotatable=0;points=[[0,0.5],[1,0.5]];portConstraint=eastwest;rounded=0;shadow=0;html=0;" vertex="1" parent="VsnxXg-3OqQaGHQ3V_Hg-155">
          <mxGeometry y="78" width="90" height="22" as="geometry" />
        </mxCell>
        <mxCell id="VsnxXg-3OqQaGHQ3V_Hg-159" value="preprocess_input" style="swimlane;fontStyle=0;align=center;verticalAlign=top;childLayout=stackLayout;horizontal=1;startSize=26;horizontalStack=0;resizeParent=1;resizeLast=0;collapsible=1;marginBottom=0;rounded=0;shadow=0;strokeWidth=1;" vertex="1" parent="VsnxXg-3OqQaGHQ3V_Hg-32">
          <mxGeometry x="23" y="390" width="97" height="100" as="geometry">
            <mxRectangle x="40" y="72" width="110" height="26" as="alternateBounds" />
          </mxGeometry>
        </mxCell>
        <mxCell id="VsnxXg-3OqQaGHQ3V_Hg-160" value="self" style="text;align=left;verticalAlign=top;spacingLeft=4;spacingRight=4;overflow=hidden;rotatable=0;points=[[0,0.5],[1,0.5]];portConstraint=eastwest;" vertex="1" parent="VsnxXg-3OqQaGHQ3V_Hg-159">
          <mxGeometry y="26" width="97" height="26" as="geometry" />
        </mxCell>
        <mxCell id="VsnxXg-3OqQaGHQ3V_Hg-161" value="input_data" style="text;align=left;verticalAlign=top;spacingLeft=4;spacingRight=4;overflow=hidden;rotatable=0;points=[[0,0.5],[1,0.5]];portConstraint=eastwest;rounded=0;shadow=0;html=0;" vertex="1" parent="VsnxXg-3OqQaGHQ3V_Hg-159">
          <mxGeometry y="52" width="97" height="26" as="geometry" />
        </mxCell>
        <mxCell id="VsnxXg-3OqQaGHQ3V_Hg-163" value="predict_default_probability" style="swimlane;fontStyle=0;align=center;verticalAlign=top;childLayout=stackLayout;horizontal=1;startSize=26;horizontalStack=0;resizeParent=1;resizeLast=0;collapsible=1;marginBottom=0;rounded=0;shadow=0;strokeWidth=1;" vertex="1" parent="VsnxXg-3OqQaGHQ3V_Hg-32">
          <mxGeometry x="10" y="560" width="140" height="100" as="geometry">
            <mxRectangle x="40" y="72" width="110" height="26" as="alternateBounds" />
          </mxGeometry>
        </mxCell>
        <mxCell id="VsnxXg-3OqQaGHQ3V_Hg-164" value="self" style="text;align=left;verticalAlign=top;spacingLeft=4;spacingRight=4;overflow=hidden;rotatable=0;points=[[0,0.5],[1,0.5]];portConstraint=eastwest;" vertex="1" parent="VsnxXg-3OqQaGHQ3V_Hg-163">
          <mxGeometry y="26" width="140" height="26" as="geometry" />
        </mxCell>
        <mxCell id="VsnxXg-3OqQaGHQ3V_Hg-165" value="input_data" style="text;align=left;verticalAlign=top;spacingLeft=4;spacingRight=4;overflow=hidden;rotatable=0;points=[[0,0.5],[1,0.5]];portConstraint=eastwest;rounded=0;shadow=0;html=0;" vertex="1" parent="VsnxXg-3OqQaGHQ3V_Hg-163">
          <mxGeometry y="52" width="140" height="26" as="geometry" />
        </mxCell>
        <mxCell id="VsnxXg-3OqQaGHQ3V_Hg-45" value="pandas&lt;div&gt;&lt;br&gt;&lt;/div&gt;&lt;div&gt;seaborn&lt;/div&gt;&lt;div&gt;&lt;br&gt;&lt;/div&gt;&lt;div&gt;numpy&lt;/div&gt;&lt;div&gt;&lt;br&gt;&lt;/div&gt;&lt;div&gt;sciply&lt;/div&gt;" style="rounded=0;whiteSpace=wrap;html=1;" vertex="1" parent="VsnxXg-3OqQaGHQ3V_Hg-24">
          <mxGeometry x="45" y="50" width="90" height="110" as="geometry" />
        </mxCell>
        <mxCell id="VsnxXg-3OqQaGHQ3V_Hg-139" value="__init__" style="swimlane;fontStyle=0;align=center;verticalAlign=top;childLayout=stackLayout;horizontal=1;startSize=26;horizontalStack=0;resizeParent=1;resizeLast=0;collapsible=1;marginBottom=0;rounded=0;shadow=0;strokeWidth=1;" vertex="1" parent="VsnxXg-3OqQaGHQ3V_Hg-24">
          <mxGeometry x="50" y="220" width="90" height="80" as="geometry">
            <mxRectangle x="40" y="72" width="110" height="26" as="alternateBounds" />
          </mxGeometry>
        </mxCell>
        <mxCell id="VsnxXg-3OqQaGHQ3V_Hg-140" value="self" style="text;align=left;verticalAlign=top;spacingLeft=4;spacingRight=4;overflow=hidden;rotatable=0;points=[[0,0.5],[1,0.5]];portConstraint=eastwest;" vertex="1" parent="VsnxXg-3OqQaGHQ3V_Hg-139">
          <mxGeometry y="26" width="90" height="26" as="geometry" />
        </mxCell>
        <mxCell id="VsnxXg-3OqQaGHQ3V_Hg-141" value="df" style="text;align=left;verticalAlign=top;spacingLeft=4;spacingRight=4;overflow=hidden;rotatable=0;points=[[0,0.5],[1,0.5]];portConstraint=eastwest;rounded=0;shadow=0;html=0;" vertex="1" parent="VsnxXg-3OqQaGHQ3V_Hg-139">
          <mxGeometry y="52" width="90" height="26" as="geometry" />
        </mxCell>
        <mxCell id="VsnxXg-3OqQaGHQ3V_Hg-142" value="plot_pd_distribution" style="swimlane;fontStyle=0;align=center;verticalAlign=top;childLayout=stackLayout;horizontal=1;startSize=20;horizontalStack=0;resizeParent=1;resizeLast=0;collapsible=1;marginBottom=0;rounded=0;shadow=0;strokeWidth=1;" vertex="1" parent="VsnxXg-3OqQaGHQ3V_Hg-24">
          <mxGeometry x="20" y="400" width="130" height="80" as="geometry">
            <mxRectangle x="40" y="72" width="110" height="26" as="alternateBounds" />
          </mxGeometry>
        </mxCell>
        <mxCell id="VsnxXg-3OqQaGHQ3V_Hg-143" value="self" style="text;align=left;verticalAlign=top;spacingLeft=4;spacingRight=4;overflow=hidden;rotatable=0;points=[[0,0.5],[1,0.5]];portConstraint=eastwest;" vertex="1" parent="VsnxXg-3OqQaGHQ3V_Hg-142">
          <mxGeometry y="20" width="130" height="26" as="geometry" />
        </mxCell>
        <mxCell id="VsnxXg-3OqQaGHQ3V_Hg-145" value="plot_risk_by_category" style="swimlane;fontStyle=0;align=center;verticalAlign=top;childLayout=stackLayout;horizontal=1;startSize=26;horizontalStack=0;resizeParent=1;resizeLast=0;collapsible=1;marginBottom=0;rounded=0;shadow=0;strokeWidth=1;" vertex="1" parent="VsnxXg-3OqQaGHQ3V_Hg-24">
          <mxGeometry x="20" y="560" width="140" height="80" as="geometry">
            <mxRectangle x="40" y="72" width="110" height="26" as="alternateBounds" />
          </mxGeometry>
        </mxCell>
        <mxCell id="VsnxXg-3OqQaGHQ3V_Hg-146" value="self" style="text;align=left;verticalAlign=top;spacingLeft=4;spacingRight=4;overflow=hidden;rotatable=0;points=[[0,0.5],[1,0.5]];portConstraint=eastwest;" vertex="1" parent="VsnxXg-3OqQaGHQ3V_Hg-145">
          <mxGeometry y="26" width="140" height="26" as="geometry" />
        </mxCell>
        <mxCell id="VsnxXg-3OqQaGHQ3V_Hg-147" value="category" style="text;align=left;verticalAlign=top;spacingLeft=4;spacingRight=4;overflow=hidden;rotatable=0;points=[[0,0.5],[1,0.5]];portConstraint=eastwest;rounded=0;shadow=0;html=0;" vertex="1" parent="VsnxXg-3OqQaGHQ3V_Hg-145">
          <mxGeometry y="52" width="140" height="26" as="geometry" />
        </mxCell>
        <mxCell id="VsnxXg-3OqQaGHQ3V_Hg-148" value="plot_risk_concentration_curve" style="swimlane;fontStyle=0;align=center;verticalAlign=top;childLayout=stackLayout;horizontal=1;startSize=26;horizontalStack=0;resizeParent=1;resizeLast=0;collapsible=1;marginBottom=0;rounded=0;shadow=0;strokeWidth=1;" vertex="1" parent="VsnxXg-3OqQaGHQ3V_Hg-24">
          <mxGeometry x="10" y="730" width="160" height="80" as="geometry">
            <mxRectangle x="40" y="72" width="110" height="26" as="alternateBounds" />
          </mxGeometry>
        </mxCell>
        <mxCell id="VsnxXg-3OqQaGHQ3V_Hg-149" value="self" style="text;align=left;verticalAlign=top;spacingLeft=4;spacingRight=4;overflow=hidden;rotatable=0;points=[[0,0.5],[1,0.5]];portConstraint=eastwest;" vertex="1" parent="VsnxXg-3OqQaGHQ3V_Hg-148">
          <mxGeometry y="26" width="160" height="26" as="geometry" />
        </mxCell>
        <mxCell id="VsnxXg-3OqQaGHQ3V_Hg-151" value="plot_risk_by_income_range" style="swimlane;fontStyle=0;align=center;verticalAlign=top;childLayout=stackLayout;horizontal=1;startSize=26;horizontalStack=0;resizeParent=1;resizeLast=0;collapsible=1;marginBottom=0;rounded=0;shadow=0;strokeWidth=1;" vertex="1" parent="VsnxXg-3OqQaGHQ3V_Hg-24">
          <mxGeometry x="5" y="910" width="160" height="80" as="geometry">
            <mxRectangle x="40" y="72" width="110" height="26" as="alternateBounds" />
          </mxGeometry>
        </mxCell>
        <mxCell id="VsnxXg-3OqQaGHQ3V_Hg-152" value="self&#xa;bins" style="text;align=left;verticalAlign=top;spacingLeft=4;spacingRight=4;overflow=hidden;rotatable=0;points=[[0,0.5],[1,0.5]];portConstraint=eastwest;" vertex="1" parent="VsnxXg-3OqQaGHQ3V_Hg-151">
          <mxGeometry y="26" width="160" height="44" as="geometry" />
        </mxCell>
        <mxCell id="VsnxXg-3OqQaGHQ3V_Hg-153" value="calculate_total_portfolio_risk" style="swimlane;fontStyle=0;align=center;verticalAlign=top;childLayout=stackLayout;horizontal=1;startSize=30;horizontalStack=0;resizeParent=1;resizeLast=0;collapsible=1;marginBottom=0;rounded=0;shadow=0;strokeWidth=1;" vertex="1" parent="VsnxXg-3OqQaGHQ3V_Hg-24">
          <mxGeometry x="5" y="1050" width="160" height="80" as="geometry">
            <mxRectangle x="40" y="72" width="110" height="26" as="alternateBounds" />
          </mxGeometry>
        </mxCell>
        <mxCell id="VsnxXg-3OqQaGHQ3V_Hg-154" value="self" style="text;align=left;verticalAlign=top;spacingLeft=4;spacingRight=4;overflow=hidden;rotatable=0;points=[[0,0.5],[1,0.5]];portConstraint=eastwest;" vertex="1" parent="VsnxXg-3OqQaGHQ3V_Hg-153">
          <mxGeometry y="30" width="160" height="44" as="geometry" />
        </mxCell>
      </root>
    </mxGraphModel>
  </diagram>
</mxfile>
